<mxfile host="app.diagrams.net" modified="2023-04-04T12:45:10.975Z" agent="Mozilla/5.0 (Windows NT 10.0; Win64; x64) AppleWebKit/537.36 (KHTML, like Gecko) Chrome/111.0.0.0 Safari/537.36" version="21.1.4" etag="Fp4uuyU7VSVFSVljuALj" type="github">
  <diagram name="Page-1" id="cidBPuvZtP5vSum8kRG6">
    <mxGraphModel>
      <root>
        <mxCell id="0" />
        <mxCell id="1" parent="0" />
      </root>
    </mxGraphModel>
  </diagram>
</mxfile>
